<svg width="100" height="100" viewBox="0 0 100 100" fill="none" xmlns="http://www.w3.org/2000/svg">
  <!-- Outer Frame -->
  <rect x="10" y="10" width="80" height="80" rx="8" stroke="#2563eb" stroke-width="8"/>
  
  <!-- Top Left Corner -->
  <rect x="22" y="22" width="20" height="20" rx="2" fill="#2563eb"/>
  <rect x="26" y="26" width="12" height="12" rx="1" fill="white"/>
  <rect x="29" y="29" width="6" height="6" rx="0.5" fill="#2563eb"/>

  <!-- Top Right Corner -->
  <rect x="58" y="22" width="20" height="20" rx="2" fill="#2563eb"/>
  <rect x="62" y="26" width="12" height="12" rx="1" fill="white"/>
  <rect x="65" y="29" width="6" height="6" rx="0.5" fill="#2563eb"/>

  <!-- Bottom Left Corner -->
  <rect x="22" y="58" width="20" height="20" rx="2" fill="#2563eb"/>
  <rect x="26" y="62" width="12" height="12" rx="1" fill="white"/>
  <rect x="29" y="65" width="6" height="6" rx="0.5" fill="#2563eb"/>

  <!-- Decorative bits -->
  <rect x="58" y="58" width="8" height="8" rx="1" fill="#2563eb"/>
  <rect x="70" y="58" width="8" height="8" rx="1" fill="#2563eb"/>
  <rect x="58" y="70" width="8" height="8" rx="1" fill="#2563eb"/>
  <rect x="70" y="70" width="8" height="8" rx="1" fill="#93c5fd"/>
</svg>
